Coordinates
version=1
nRows=13
nColumns=40
inDegrees=yes

Units are S.I. units (second, meters, Newtons, ...)
If the header above contains a line with 'inDegrees', this indicates whether rotational values are in degrees (yes) or radians (no).

endheader
time	pelvis_tilt	pelvis_list	pelvis_rotation	pelvis_tx	pelvis_ty	pelvis_tz	hip_flexion_r	hip_adduction_r	hip_rotation_r	knee_angle_r	knee_angle_r_beta	ankle_angle_r	subtalar_angle_r	mtp_angle_r	hip_flexion_l	hip_adduction_l	hip_rotation_l	knee_angle_l	knee_angle_l_beta	ankle_angle_l	subtalar_angle_l	mtp_angle_l	lumbar_extension	lumbar_bending	lumbar_rotation	arm_flex_r	arm_add_r	arm_rot_r	elbow_flex_r	pro_sup_r	wrist_flex_r	wrist_dev_r	arm_flex_l	arm_add_l	arm_rot_l	elbow_flex_l	pro_sup_l	wrist_flex_l	wrist_dev_l
      4.44000000	      1.80087145	     -8.31911790	      0.29557768	     -0.38119547	      0.83564791	     -1.04607815	     58.72946066	      2.18772254	    -13.55425085	     24.81953996	      0.43318269	    -11.53457399	      0.00000000	      0.00000000	     47.55738759	     -4.66938437	      0.39881318	     83.55860195	      1.45837272	     23.72546985	      0.00000000	      0.00000000	    -20.81574958	      7.07388548	      3.61817938	     89.86020394	    -19.70967993	     27.32569033	     45.35506712	     84.26219076	      0.00000000	      0.00000000	     89.91833304	    -24.88326196	     28.30050858	     44.13513661	     85.45808827	      0.00000000	      0.00000000
      4.44500000	      1.80517094	     -8.34549042	      0.35353833	     -0.38126578	      0.83714820	     -1.04606531	     58.67739294	      2.18730709	    -13.54774793	     24.77521194	      0.43240902	    -11.54184218	      0.00000000	      0.00000000	     47.42670845	     -4.68049460	      0.40521100	     83.29266612	      1.45373127	     23.63116801	      0.00000000	      0.00000000	    -20.76045527	      7.12926067	      3.58475313	     89.85922680	    -19.75588038	     27.37527796	     45.33008284	     84.26212104	      0.00000000	      0.00000000	     89.91813419	    -24.86253324	     28.35545940	     44.15096051	     85.45925050	      0.00000000	      0.00000000
      4.45000000	      1.84939731	     -8.34699557	      0.34895922	     -0.38105305	      0.83870338	     -1.04597917	     58.56299648	      2.22581833	    -13.57437486	     24.72810941	      0.43158693	    -11.51555819	      0.00000000	      0.00000000	     47.18773176	     -4.68959757	      0.42956980	     82.95001930	      1.44775095	     23.48007304	      0.00000000	      0.00000000	    -20.73641905	      7.13923102	      3.57811642	     89.85780610	    -19.76673115	     27.49846835	     45.27743024	     84.26564565	      0.00000000	      0.00000000	     89.91803395	    -24.86982099	     28.49400452	     44.09833321	     85.46053054	      0.00000000	      0.00000000
      4.45500000	      1.87040325	     -8.38746650	      0.35583301	     -0.38095485	      0.84017750	     -1.04589589	     58.48712164	      2.27006337	    -13.54635013	     24.69939251	      0.43108572	    -11.51731527	      0.00000000	      0.00000000	     47.02998113	     -4.75143545	      0.43529005	     82.70521541	      1.44347832	     23.37635523	      0.00000000	      0.00000000	    -20.68411342	      7.19810496	      3.60020992	     89.85711572	    -19.79413249	     27.55831293	     45.23068143	     84.26450710	      0.00000000	      0.00000000	     89.91762458	    -24.86419052	     28.56482808	     44.11772028	     85.46037392	      0.00000000	      0.00000000
      4.46000000	      1.88697322	     -8.40110639	      0.37402024	     -0.38090856	      0.84173349	     -1.04589241	     58.40626087	      2.29092894	    -13.54479173	     24.64874802	      0.43020181	    -11.54658992	      0.00000000	      0.00000000	     46.85324225	     -4.76778875	      0.43704102	     82.39584689	      1.43807882	     23.24521261	      0.00000000	      0.00000000	    -20.64627644	      7.23480115	      3.58392640	     89.85594019	    -19.82450446	     27.64635839	     45.20662161	     84.26507706	      0.00000000	      0.00000000	     89.91752443	    -24.86440244	     28.65458536	     44.09768621	     85.46040002	      0.00000000	      0.00000000
      4.46500000	      1.91421038	     -8.40826977	      0.37510041	     -0.38081735	      0.84332335	     -1.04583049	     58.31680957	      2.31877425	    -13.54696226	     24.60474945	      0.42943389	    -11.57316463	      0.00000000	      0.00000000	     46.64734931	     -4.77766120	      0.44892072	     82.08207738	      1.43260251	     23.10875461	      0.00000000	      0.00000000	    -20.60357607	      7.25449301	      3.59356833	     89.85489491	    -19.84166688	     27.72668105	     45.14334751	     84.26386984	      0.00000000	      0.00000000	     89.91697594	    -24.86084338	     28.76579136	     44.10054275	     85.46202997	      0.00000000	      0.00000000
      4.47000000	      1.93487868	     -8.42865627	      0.32592479	     -0.38054373	      0.84488667	     -1.04576346	     58.23342571	      2.39361441	    -13.53897269	     24.56646577	      0.42876571	    -11.55119142	      0.00000000	      0.00000000	     46.45030171	     -4.83181167	      0.43277573	     81.80266017	      1.42772576	     22.97239104	      0.00000000	      0.00000000	    -20.54633437	      7.27836640	      3.62615456	     89.85337121	    -19.84880710	     27.85773466	     45.06913538	     84.26942179	      0.00000000	      0.00000000	     89.91672201	    -24.86832048	     28.88547899	     44.05744662	     85.46064020	      0.00000000	      0.00000000
      4.47500000	      1.95293703	     -8.44010123	      0.32180817	     -0.38038230	      0.84639622	     -1.04565267	     58.15646516	      2.43313304	    -13.52450196	     24.54757643	      0.42843603	    -11.51992094	      0.00000000	      0.00000000	     46.27650096	     -4.86455146	      0.42986609	     81.53421668	      1.42304053	     22.85955130	      0.00000000	      0.00000000	    -20.47922737	      7.31000577	      3.64740205	     89.85130273	    -19.86478292	     27.93077971	     45.01455774	     84.26568871	      0.00000000	      0.00000000	     89.91608695	    -24.86717745	     29.00262949	     44.04641383	     85.46299417	      0.00000000	      0.00000000
      4.48000000	      1.98037355	     -8.45018021	      0.35122378	     -0.38039151	      0.84810257	     -1.04563453	     58.06411166	      2.44387178	    -13.53460788	     24.49927474	      0.42759301	    -11.55393149	      0.00000000	      0.00000000	     46.06410440	     -4.86116718	      0.44228098	     81.18700766	      1.41698059	     22.71472923	      0.00000000	      0.00000000	    -20.44569015	      7.33074832	      3.63095073	     89.85052099	    -19.87736851	     28.00914018	     44.93518227	     84.25880723	      0.00000000	      0.00000000	     89.91622730	    -24.83748102	     29.11761962	     44.04657977	     85.46254968	      0.00000000	      0.00000000
      4.48500000	      2.13167851	     -8.41553627	      0.40604297	     -0.38032012	      0.84998014	     -1.04565163	     57.81206771	      2.41296123	    -13.56033403	     24.41887890	      0.42618984	    -11.55837668	      0.00000000	      0.00000000	     45.72788222	     -4.81758966	      0.43421147	     80.86902236	      1.41143070	     22.49315445	      0.00000000	      0.00000000	    -20.53008338	      7.32214471	      3.58920228	     89.85135053	    -19.92330111	     28.19771478	     44.86448423	     84.24472262	      0.00000000	      0.00000000	     89.91665749	    -24.87116399	     29.32067300	     44.05516940	     85.44596500	      0.00000000	      0.00000000
      4.49000000	      2.13555678	     -8.44129559	      0.37477040	     -0.38004121	      0.85163743	     -1.04555363	     57.75181426	      2.47778395	    -13.52778305	     24.42813228	      0.42635134	    -11.52348270	      0.00000000	      0.00000000	     45.53300021	     -4.86803799	      0.43243880	     80.56165341	      1.40606610	     22.40574912	      0.00000000	      0.00000000	    -20.45845414	      7.35217499	      3.60027266	     89.84731327	    -19.92312321	     28.27171411	     44.83704671	     84.23613171	      0.00000000	      0.00000000	     89.91557600	    -24.88858291	     29.40531280	     44.05170960	     85.44023699	      0.00000000	      0.00000000
      4.49500000	      2.11853711	     -8.49719688	      0.38545818	     -0.38010670	      0.85313217	     -1.04546455	     57.72661352	      2.53246013	    -13.52935922	     24.42608601	      0.42631562	    -11.53218800	      0.00000000	      0.00000000	     45.41307711	     -4.92122178	      0.46682451	     80.26947954	      1.40096671	     22.31280791	      0.00000000	      0.00000000	    -20.37519221	      7.43079745	      3.61366194	     89.84707848	    -19.94628428	     28.30530691	     44.79174913	     84.22876908	      0.00000000	      0.00000000	     89.91504793	    -24.88804138	     29.44941359	     44.06670695	     85.43784878	      0.00000000	      0.00000000
      4.50000000	      2.14624334	     -8.50801339	      0.39023592	     -0.37985619	      0.85487713	     -1.04546622	     57.62850605	      2.55585574	    -13.50298606	     24.40796113	      0.42599929	    -11.53999504	      0.00000000	      0.00000000	     45.18469729	     -4.92232857	      0.48953543	     79.93230590	      1.39508192	     22.18557419	      0.00000000	      0.00000000	    -20.31637085	      7.46856979	      3.61556735	     89.84407899	    -19.95097948	     28.41073007	     44.70386699	     84.22397542	      0.00000000	      0.00000000	     89.91422105	    -24.88806282	     29.57790053	     44.04521565	     85.44087203	      0.00000000	      0.00000000
